<svg xmlns="http://www.w3.org/2000/svg" xmlns:xlink="http://www.w3.org/1999/xlink" width="1587" zoomAndPan="magnify" viewBox="0 0 1190.25 1683.749945" height="2245" preserveAspectRatio="xMidYMid meet" version="1.0"><defs><clipPath id="dcfe3b94bb"><path d="M 0 0.40625 L 1189.5 0.40625 L 1189.5 1683.09375 L 0 1683.09375 Z M 0 0.40625 " clip-rule="nonzero"/></clipPath><clipPath id="1141b49c9d"><path d="M 0 1492 L 170.917969 1492 L 170.917969 1683.09375 L 0 1683.09375 Z M 0 1492 " clip-rule="nonzero"/></clipPath><clipPath id="b362f3a6e5"><path d="M 793 0.40625 L 1189.5 0.40625 L 1189.5 186 L 793 186 Z M 793 0.40625 " clip-rule="nonzero"/></clipPath><clipPath id="64e710c817"><path d="M 1140.585938 -309.824219 L 1400.738281 88.972656 L 1001.9375 349.125 L 741.789062 -49.671875 Z M 1140.585938 -309.824219 " clip-rule="nonzero"/></clipPath><clipPath id="c89c30ac62"><path d="M 1140.585938 -309.824219 L 1400.738281 88.972656 L 1001.9375 349.125 L 741.789062 -49.671875 Z M 1140.585938 -309.824219 " clip-rule="nonzero"/></clipPath></defs><g clip-path="url(#dcfe3b94bb)"><path fill="#ffffff" d="M 0 0.40625 L 1192.25 0.40625 L 1192.25 1694.296875 L 0 1694.296875 Z M 0 0.40625 " fill-opacity="1" fill-rule="nonzero"/><path fill="#ffffff" d="M 0 0.40625 L 1190 0.40625 L 1190 1683.800781 L 0 1683.800781 Z M 0 0.40625 " fill-opacity="1" fill-rule="nonzero"/><path fill="#fcfffe" d="M 0 0.40625 L 1190 0.40625 L 1190 1683.800781 L 0 1683.800781 Z M 0 0.40625 " fill-opacity="1" fill-rule="nonzero"/></g><g clip-path="url(#1141b49c9d)"><path fill="#f3953d" d="M 152.621094 1616.074219 L 152.011719 1614.648438 L 152.011719 1614.445312 Z M 164.617188 1667.6875 L 164.210938 1664.839844 L 164.210938 1664.636719 Z M 170.917969 1692.273438 C 170.917969 1696.539062 170.714844 1700.808594 170.511719 1705.074219 C 170.308594 1709.34375 169.902344 1713.40625 169.496094 1717.675781 L 169.089844 1720.316406 L 168.882812 1721.738281 C 168.882812 1722.144531 168.882812 1722.753906 168.679688 1723.363281 L 168.476562 1724.378906 L 168.476562 1724.785156 L 167.664062 1730.679688 C 167.054688 1734.539062 166.445312 1738.402344 165.835938 1742.464844 C 165.226562 1746.527344 164.414062 1751 163.597656 1755.0625 C 162.785156 1759.128906 161.769531 1763.191406 160.753906 1767.253906 C 159.738281 1771.320312 158.71875 1774.773438 157.703125 1778.636719 C 156.6875 1782.496094 155.46875 1786.355469 154.246094 1790.21875 C 153.027344 1794.078125 151.808594 1797.734375 150.386719 1801.394531 C 148.960938 1805.050781 147.132812 1808.503906 144.894531 1811.960938 C 143.675781 1813.585938 142.660156 1815.414062 141.441406 1817.039062 C 140.222656 1818.664062 139.40625 1820.089844 138.390625 1821.714844 C 136.15625 1825.167969 133.917969 1828.417969 131.886719 1831.875 C 129.851562 1835.328125 127.414062 1838.78125 125.175781 1842.238281 C 122.941406 1845.488281 120.5 1848.738281 117.859375 1851.789062 C 116.640625 1853.210938 115.417969 1854.632812 113.996094 1855.851562 C 112.574219 1857.070312 111.148438 1858.289062 109.726562 1859.507812 C 108.304688 1860.730469 106.472656 1861.339844 104.847656 1862.558594 C 103.222656 1863.777344 101.59375 1864.792969 99.96875 1865.808594 C 96.511719 1868.042969 92.855469 1870.277344 89.398438 1872.3125 C 82.691406 1876.375 75.574219 1879.828125 68.460938 1883.285156 C 65.003906 1884.910156 61.75 1886.128906 58.089844 1887.347656 C 54.230469 1888.769531 50.367188 1889.988281 46.300781 1891.003906 C 38.980469 1893.242188 31.460938 1894.867188 23.734375 1895.882812 C 21.296875 1896.085938 18.855469 1896.492188 16.417969 1896.695312 C 14.789062 1896.898438 13.164062 1897.101562 11.539062 1897.304688 C 10.113281 1897.507812 8.894531 1897.710938 7.675781 1897.914062 C 6.050781 1897.914062 4.421875 1897.914062 2.59375 1897.507812 C 1.171875 1897.101562 0.355469 1895.679688 0.558594 1894.257812 L 0.558594 1894.054688 C 0.558594 1893.851562 0.558594 1893.648438 0.558594 1893.242188 C 0.558594 1892.226562 0.355469 1891.210938 0.355469 1890.191406 C 0.152344 1888.160156 0.152344 1886.128906 -0.0507812 1884.097656 C -0.0507812 1882.878906 -0.253906 1881.863281 -0.253906 1880.847656 C -0.253906 1879.828125 -0.457031 1878.609375 -0.457031 1877.59375 C -0.457031 1875.96875 -0.457031 1874.34375 -0.457031 1872.71875 L -0.457031 1870.890625 C -0.457031 1869.261719 -0.457031 1867.636719 -0.660156 1866.011719 C -0.863281 1864.183594 -1.269531 1862.152344 -1.472656 1860.320312 C -1.675781 1858.492188 -1.675781 1856.054688 -1.878906 1854.023438 C -2.082031 1851.992188 -2.082031 1849.753906 -2.285156 1847.722656 C -2.488281 1845.691406 -2.285156 1843.660156 -2.285156 1841.628906 L -2.285156 1841.019531 C -2.285156 1840.613281 -2.285156 1840.207031 -2.285156 1839.796875 C -1.878906 1838.984375 -1.269531 1838.171875 -0.253906 1837.96875 C 0.152344 1837.765625 0.558594 1837.5625 1.171875 1837.5625 C 3 1836.953125 4.625 1836.953125 6.253906 1836.75 C 7.878906 1836.546875 9.910156 1836.34375 11.742188 1836.140625 C 15.398438 1835.734375 19.058594 1835.328125 22.515625 1834.921875 C 28.003906 1834.3125 33.492188 1833.296875 38.980469 1832.078125 C 41.015625 1831.46875 42.84375 1831.0625 44.675781 1830.453125 C 46.503906 1829.84375 48.535156 1829.027344 50.367188 1828.417969 C 53.617188 1826.996094 56.871094 1825.574219 60.125 1823.949219 C 63.375 1822.324219 66.222656 1820.699219 69.273438 1819.070312 C 71.710938 1817.648438 74.152344 1816.226562 76.386719 1814.601562 C 79.640625 1812.164062 82.894531 1809.523438 85.941406 1806.675781 C 87.773438 1804.644531 89.804688 1802.613281 91.429688 1800.582031 C 93.058594 1798.546875 94.886719 1796.3125 96.714844 1794.28125 C 98.75 1791.84375 100.578125 1789.203125 102.207031 1786.558594 C 103.628906 1784.121094 104.847656 1781.683594 105.863281 1779.042969 C 106.679688 1777.007812 107.492188 1774.976562 108.304688 1773.148438 C 109.117188 1771.320312 109.726562 1768.882812 110.539062 1766.847656 C 111.964844 1762.582031 113.386719 1758.316406 114.605469 1753.84375 C 115.824219 1749.375 116.640625 1745.308594 117.25 1740.839844 C 117.859375 1736.367188 118.875 1731.695312 119.484375 1727.019531 C 120.296875 1720.925781 120.703125 1714.828125 120.703125 1708.53125 C 120.703125 1704.667969 120.5 1700.605469 120.296875 1696.742188 C 120.09375 1692.882812 119.890625 1688.617188 119.28125 1684.550781 L 119.28125 1684.957031 C 118.671875 1679.472656 117.453125 1673.984375 116.234375 1668.5 C 115.011719 1663.011719 113.589844 1657.121094 112.167969 1651.632812 C 111.761719 1649.804688 111.148438 1647.976562 110.742188 1646.351562 C 110.132812 1644.316406 109.523438 1642.285156 108.710938 1640.253906 C 107.492188 1636.394531 106.066406 1632.53125 104.441406 1628.875 C 103.628906 1626.640625 102.613281 1624.402344 101.59375 1622.371094 C 100.578125 1620.339844 99.15625 1617.699219 97.9375 1615.464844 C 96.308594 1612.414062 94.277344 1609.570312 92.449219 1606.726562 C 91.429688 1605.507812 90.414062 1604.082031 89.398438 1602.863281 C 88.382812 1601.644531 86.957031 1600.222656 85.738281 1599.003906 C 80.65625 1593.921875 75.371094 1589.25 69.882812 1584.78125 C 67.847656 1583.152344 65.613281 1581.527344 63.375 1580.105469 C 61.140625 1578.683594 58.292969 1576.855469 55.855469 1575.433594 C 54.433594 1574.621094 53.210938 1573.804688 51.789062 1572.992188 C 50.367188 1572.179688 48.941406 1571.367188 47.519531 1570.757812 C 44.472656 1569.335938 41.625 1567.914062 38.574219 1566.695312 C 35.527344 1565.476562 33.085938 1564.460938 30.242188 1563.441406 C 27.394531 1562.425781 24.140625 1561.410156 21.09375 1560.191406 C 15.398438 1558.160156 9.707031 1556.332031 4.015625 1554.503906 C 0.761719 1553.484375 -2.285156 1552.46875 -5.539062 1551.25 C -6.148438 1551.046875 -6.960938 1550.640625 -7.773438 1550.4375 C -8.585938 1550.03125 -9.402344 1549.421875 -10.011719 1548.8125 C -10.621094 1548.40625 -11.027344 1547.59375 -11.027344 1546.78125 C -11.027344 1546.78125 -11.027344 1546.578125 -11.027344 1546.578125 L -11.027344 1545.15625 C -11.027344 1544.34375 -11.027344 1543.53125 -11.027344 1542.714844 C -11.027344 1541.292969 -11.230469 1539.667969 -11.230469 1538.246094 C -11.230469 1536.824219 -11.230469 1534.792969 -11.230469 1533.164062 L -11.230469 1515.285156 C -11.230469 1513.660156 -11.230469 1512.03125 -11.230469 1510.40625 L -11.230469 1505.53125 C -11.230469 1503.5 -11.230469 1501.667969 -11.433594 1499.636719 L -11.839844 1496.792969 C -12.042969 1495.980469 -11.839844 1495.167969 -11.636719 1494.355469 L -11.636719 1494.152344 C -11.230469 1492.933594 -9.808594 1492.117188 -8.382812 1492.527344 C -7.570312 1492.527344 -6.960938 1492.527344 -6.148438 1492.730469 C -5.335938 1492.933594 -4.523438 1492.933594 -3.707031 1493.136719 C -2.082031 1493.339844 -0.660156 1493.542969 0.964844 1493.746094 C 5.234375 1494.355469 9.503906 1494.761719 13.570312 1495.371094 C 17.636719 1496.183594 21.5 1496.996094 25.566406 1498.214844 C 29.628906 1499.433594 33.492188 1500.855469 37.558594 1502.277344 C 41.625 1503.703125 45.488281 1505.53125 49.351562 1507.15625 C 53.210938 1508.78125 56.667969 1510.40625 60.53125 1512.234375 C 64.394531 1514.066406 68.257812 1515.894531 72.117188 1517.722656 C 73.949219 1518.535156 75.777344 1519.550781 77.402344 1520.363281 C 79.03125 1521.175781 81.0625 1522.191406 82.894531 1523.210938 C 84.722656 1524.226562 86.550781 1525.445312 88.382812 1526.664062 C 90.210938 1527.882812 92.039062 1529.101562 93.667969 1530.523438 C 96.917969 1532.960938 100.375 1535.402344 103.628906 1537.839844 C 106.882812 1540.480469 110.132812 1543.324219 113.183594 1546.171875 C 114.605469 1547.59375 116.234375 1549.21875 117.65625 1550.640625 C 119.078125 1552.0625 120.5 1553.484375 121.925781 1554.910156 C 123.347656 1556.332031 124.972656 1557.957031 126.398438 1559.785156 C 127.820312 1561.613281 129.039062 1563.035156 130.257812 1564.664062 C 130.667969 1565.070312 131.074219 1565.476562 131.277344 1566.085938 C 131.683594 1566.492188 131.886719 1566.898438 132.292969 1567.304688 C 132.902344 1568.117188 133.511719 1568.929688 134.121094 1569.945312 C 135.339844 1571.773438 136.5625 1573.601562 137.578125 1575.433594 C 139.609375 1578.886719 141.441406 1582.542969 143.472656 1586 C 145.507812 1589.453125 147.132812 1593.109375 148.960938 1596.769531 C 150.792969 1600.425781 152.621094 1604.285156 154.449219 1607.945312 C 156.28125 1611.601562 157.703125 1615.667969 159.125 1619.527344 C 160.550781 1623.386719 161.769531 1627.453125 162.785156 1631.515625 C 163.800781 1635.582031 164.820312 1639.644531 165.632812 1643.707031 C 166.445312 1647.773438 167.257812 1651.632812 167.867188 1655.492188 C 168.476562 1659.355469 169.089844 1663.824219 169.496094 1667.890625 C 169.902344 1671.953125 170.105469 1676.425781 170.308594 1680.691406 C 170.308594 1683.332031 170.511719 1685.972656 170.511719 1688.414062 Z M 170.917969 1692.273438 " fill-opacity="1" fill-rule="nonzero"/></g><g clip-path="url(#b362f3a6e5)"><g clip-path="url(#64e710c817)"><g clip-path="url(#c89c30ac62)"><path fill="#f3953d" d="M 1105.113281 -194.625 C 1039.613281 -171.046875 978.488281 -84.847656 944.066406 -97.269531 C 861.082031 -127.226562 806.910156 -75.304688 794.582031 -33.027344 C 781.664062 11.453125 859.882812 117.585938 949.675781 87.789062 C 975.707031 79.152344 1013.15625 79.648438 1038.710938 88.652344 C 1090.199219 106.738281 1162.410156 192.503906 1222.355469 184.851562 C 1260.953125 179.894531 1301.902344 150.828125 1261.722656 70.375 C 1230.828125 8.582031 1197.378906 -6.613281 1194.191406 -60.699219 C 1192.046875 -97.601562 1272.742188 -107.234375 1219.1875 -174.898438 C 1192.757812 -208.363281 1148.113281 -210.054688 1105.113281 -194.625 Z M 1105.113281 -194.625 " fill-opacity="1" fill-rule="evenodd"/></g></g></g></svg>